<?xml version="1.0" encoding="iso-8859-1"?>
<!-- Uploaded to: SVG Repo, www.svgrepo.com, Generator: SVG Repo Mixer Tools -->
<svg fill="#e53e3e" height="800px" width="800px" version="1.1" id="Layer_1" xmlns="http://www.w3.org/2000/svg" xmlns:xlink="http://www.w3.org/1999/xlink"
	 viewBox="0 0 512 512" xml:space="preserve">
<g>
	<g>
		<path d="M437.424,407.441l-22.292-130.297c-3.582-20.937-23.529-35.055-44.466-31.474c-10.143,1.735-19.001,7.316-24.946,15.715
			c-1.885,2.664-3.403,5.511-4.545,8.479c-57.377,17.518-109.84,48.884-152.438,91.289c-0.527,0.525-1.322,0.859-2.099,0.827
			c-0.36-0.002-0.854-0.073-1.16-0.387c-0.751-0.773-0.758-1.961-0.013-2.704c0.139-0.139,0.275-0.28,0.41-0.424l214.66-230.093
			c0.04-0.044,0.079-0.086,0.12-0.13c8.389-9.183,11.751-21.19,10.185-32.641c15.117-24.552,11.826-57.318-9.918-78.274
			C376.123-6.572,336.46-5.46,312.095,18.88l-9.152,9.143l-3.666-3.667c-6.157-6.159-16.14-6.159-22.298-0.001l-2.51,2.51
			c-6.155,6.156-6.157,16.135-0.004,22.292l28.457,28.477c4.344,5.18,12.715,5.184,18.816,0.009l24.997-24.98
			c5.344-5.338,13.977-6.054,19.792-1.234c3,2.486,4.708,5.867,5.149,9.377c-10.569-0.201-21.202,3.709-29.254,11.751
			l-53.111,53.059l-9.502-9.512c-7.081-7.089-18.569-7.095-25.657-0.012c-7.089,7.081-7.095,18.569-0.012,25.657l9.502,9.513
			l-11.98,11.967l-9.504-9.513c-7.081-7.089-18.569-7.095-25.657-0.012c-7.089,7.081-7.095,18.569-0.012,25.657l9.502,9.513
			l-12.835,12.823l-9.504-9.513c-7.081-7.089-18.569-7.095-25.657-0.012c-7.089,7.081-7.095,18.569-0.012,25.657l9.504,9.512
			l-11.98,11.967l-9.504-9.512c-7.081-7.089-18.569-7.095-25.657-0.012c-7.089,7.081-7.095,18.569-0.012,25.657l9.504,9.513
			l-40.219,40.18c-22.944,22.92-35.587,53.403-35.604,85.835c-0.016,32.431,12.597,62.705,35.519,85.648
			C132.453,499.561,162.936,512,195.368,512c0.021,0,0.04,0,0.062,0c32.407,0,62.88-12.392,85.808-35.297l1.774-1.662
			c23.108-23.084,53.95-36.256,85.982-37.551c2.304,2.965,5.057,5.634,8.208,7.864c6.58,4.658,14.272,7.102,22.174,7.102
			c2.183,0,4.382-0.179,6.579-0.554c10.143-1.735,19.001-7.313,24.947-15.712C436.846,427.791,439.16,417.583,437.424,407.441z
			 M259.274,451.283l-1.775,1.661c-16.587,16.571-38.63,25.473-62.075,25.473c-0.015,0-0.03,0-0.045,0
			c-23.461,0-45.513-8.937-62.094-25.535c-34.228-34.263-34.2-89.875,0.063-124.103l232.808-232.52
			c1.31-1.307,3.028-1.933,4.746-1.933c1.72,0,3.442,0.669,4.751,1.979c2.528,2.53,2.633,6.576,0.252,9.233L161.489,335.37
			c-13.409,13.655-13.481,35.841-0.102,49.618c6.543,6.736,15.409,10.492,24.967,10.573c9.749,0.111,19.219-3.784,26.073-10.607
			c36.416-36.249,80.764-63.624,129.3-80l17.049,99.652C321.608,408.156,286.261,424.324,259.274,451.283z M400.287,418.808
			c-1.661,0.287-2.925-0.298-3.687-0.837c-0.762-0.538-1.729-1.532-2.015-3.199l-22.292-130.297
			c-0.459-2.685,1.352-5.243,4.036-5.703c0.28-0.048,0.56-0.07,0.836-0.07c2.361,0,4.455,1.703,4.867,4.107l22.292,130.297
			C404.783,415.79,402.972,418.348,400.287,418.808z"/>
	</g>
</g>
</svg>